<svg width="20" height="17" viewBox="0 0 20 17" fill="none" xmlns="http://www.w3.org/2000/svg">
<g clip-path="url(#clip0_359_80)">
<path d="M8.74072 0.672791L10.3226 6.59534C10.3496 6.69586 10.4184 6.77896 10.5129 6.82453L16.0089 9.45811L10.1255 11.0664C10.0243 11.0946 9.94196 11.1642 9.89742 11.2581L7.26819 16.8013L5.68633 10.8788C5.65933 10.7783 5.5905 10.6952 5.49602 10.6496L0 8.01466L5.88339 6.40637C5.98461 6.37822 6.06695 6.30853 6.11149 6.21471L8.74072 0.672791Z" fill="#FA4D7F"/>
<path d="M16.3706 0L17.1413 2.83194C17.1683 2.93246 17.2385 3.01556 17.333 3.05978L20 4.3223L17.1481 5.08758C17.0468 5.11438 16.9632 5.18408 16.9186 5.27789L15.6472 7.92622L14.8765 5.09428C14.8495 4.99376 14.7793 4.91067 14.6848 4.86644L12.0178 3.60392L14.8698 2.83864C14.971 2.81184 15.0547 2.74215 15.0992 2.64833L16.3706 0Z" fill="#FA4D7F"/>
</g>
<defs>
<clipPath id="clip0_359_80">
<rect width="20" height="16.8" fill="white"/>
</clipPath>
</defs>
</svg>
