<?xml version="1.0" encoding="UTF-8"?>
<svg id="Layer_1" data-name="Layer 1" xmlns="http://www.w3.org/2000/svg" viewBox="0 0 148.18 125.35">
  <defs>
    <style>
      .cls-1 {
        fill: #fa4d7f;
      }
    </style>
  </defs>
  <path class="cls-1" d="M64.76,5.02l11.72,44.19c.2.75.71,1.37,1.41,1.71l40.72,19.65-43.59,12c-.75.21-1.36.73-1.69,1.43l-19.48,41.36-11.72-44.19c-.2-.75-.71-1.37-1.41-1.71L0,59.8l43.59-12c.75-.21,1.36-.73,1.69-1.43L64.76,5.02Z"/>
  <path class="cls-1" d="M121.29,0l5.71,21.13c.2.75.72,1.37,1.42,1.7l19.76,9.42-21.13,5.71c-.75.2-1.37.72-1.7,1.42l-9.42,19.76-5.71-21.13c-.2-.75-.72-1.37-1.42-1.7l-19.76-9.42,21.13-5.71c.75-.2,1.37-.72,1.7-1.42L121.29,0Z"/>
</svg>