<svg width="24" height="24" viewBox="0 0 24 24" fill="none" xmlns="http://www.w3.org/2000/svg">
<path d="M17.9675 11.9625C18.0575 10.9125 19.3775 9.8025 20.0775 9.2425L18.1875 6.3325C17.3875 6.6625 15.7975 7.5225 14.8275 6.9325C14.2075 6.5525 13.9075 5.0325 13.8375 3.8125H10.2675C10.2075 5.1225 10.0275 6.4725 9.2575 6.9225C8.3675 7.4425 6.6675 6.6125 5.9175 6.3025L4.0375 9.2525C4.8075 9.8825 5.9975 10.9325 6.1375 11.9725C6.2675 12.9425 4.7975 13.9025 3.9375 14.5825L5.8875 17.6425C6.5475 17.3425 8.3875 16.6025 9.1675 17.1125C10.0275 17.6625 10.0675 19.0425 10.2875 20.2825L13.8475 20.3125C13.9675 19.4025 14.5175 17.5825 15.1475 17.1425C15.8075 16.6725 17.4775 17.4125 18.2275 17.7325L20.1675 14.6125C19.3575 13.9925 17.8675 13.0225 17.9675 11.9625ZM12.0575 14.2625C10.8475 14.2625 9.8575 13.2825 9.8575 12.0625C9.8575 10.8425 10.8475 9.8625 12.0575 9.8625C13.2675 9.8625 14.2575 10.8525 14.2575 12.0625C14.2575 13.2825 13.2675 14.2625 12.0575 14.2625Z" stroke="black" stroke-width="1.5"/>
</svg>
