<svg width="24" height="24" viewBox="0 0 24 24" fill="none" xmlns="http://www.w3.org/2000/svg">
<path d="M17.9675 11.9C18.0575 10.85 19.3775 9.74 20.0775 9.18L18.1875 6.27C17.3875 6.6 15.7975 7.46 14.8275 6.87C14.2075 6.49 13.9075 4.97 13.8375 3.75H10.2675C10.2075 5.06 10.0275 6.41 9.2575 6.86C8.3675 7.38 6.6675 6.55 5.9175 6.24L4.0375 9.19C4.8075 9.82 5.9975 10.87 6.1375 11.91C6.2675 12.88 4.7975 13.84 3.9375 14.52L5.8875 17.58C6.5475 17.28 8.3875 16.54 9.1675 17.05C10.0275 17.6 10.0675 18.98 10.2875 20.22L13.8475 20.25C13.9675 19.34 14.5175 17.52 15.1475 17.08C15.8075 16.61 17.4775 17.35 18.2275 17.67L20.1675 14.55C19.3575 13.93 17.8675 12.96 17.9675 11.9ZM12.0575 14.2C10.8475 14.2 9.8575 13.22 9.8575 12C9.8575 10.78 10.8475 9.8 12.0575 9.8C13.2675 9.8 14.2575 10.79 14.2575 12C14.2575 13.22 13.2675 14.2 12.0575 14.2Z" stroke="#ADADAD" stroke-width="1.5"/>
</svg>
