<?xml version="1.0" encoding="UTF-8"?>
<svg id="Layer_1" xmlns="http://www.w3.org/2000/svg" xmlns:xlink="http://www.w3.org/1999/xlink" version="1.1" viewBox="0 0 119 37">
  <!-- Generator: Adobe Illustrator 30.1.0, SVG Export Plug-In . SVG Version: 2.1.1 Build 136)  -->
  <defs>
    <clipPath id="clippath">
      <rect width="119" height="36.59" fill="none"/>
    </clipPath>
  </defs>
  <g clip-path="url(#clippath)">
    <g>
      <path d="M0,36.22c1.01-.03,2.01-.3,2.89-.79,1.3-.84,2.27-2.48,3.04-4.27C7.64,27.1,16.71,4.6,18.58.02h4.67c2.24,6.22,10.39,30.48,11.25,32.73.33,1.12,1.04,2.09,2.02,2.74.85.46,1.8.71,2.77.74v.37h-21.01v-.37c1.75-.16,5.35-.55,5.38-1.85,0-.38-.06-.75-.18-1.11l-2.94-9.48h-10.57l-2.49,6.9c-.44,1.04-.66,2.14-.65,3.27.21,1.85,4.25,2.11,5.98,2.27v.37H0v-.38ZM20.26,22.78l-4.61-13.3-5.23,13.3h9.84Z"/>
      <path d="M33.36,4.21c-.36-1.11-1.03-2.43-1.95-3.01-.93-.58-2.56-.74-3.49-.79V.02h19.95v.38c-1.74.16-3.79.42-3.79,1.66.11.59.24,1.17.41,1.75.3,1.11,5.08,17.04,6.82,22.28l5.95-15.13c-1.45-5.26-2.63-8.59-4.52-9.82-.88-.48-1.86-.73-2.86-.73V.02h20.3v.38c-1.75.16-4.51.37-4.51,1.66.02.5.11,1,.25,1.48.31,1,5.28,16.67,7.08,21.86,1.44-3.7,5.54-15.55,6.15-17.52.59-1.64.96-3.35,1.11-5.08,0-1.91-3.64-2.17-6-2.38V.02h12.51v.38c-.93.11-1.69.06-2.82.69-1.33.74-2.36,2.91-3.18,5.24l-10.7,30.27h-4.57c-1.53-4.82-6.72-21.22-7.79-24.23l-9.58,24.23h-4.57L33.36,4.21Z"/>
      <path d="M72.84,36.21c1.41-.06,2.82-.22,4.2-.48,1.16-.36,2.06-1.29,2.38-2.47l10.71-29.71c.42-1.18.47-2.22-.62-2.62-1.26-.3-2.55-.49-3.85-.55l.14-.38h19.58c6.36,0,14.5,2.85,13.55,13.33-1.52,16.86-9.83,23.26-27.72,23.26h-18.5l.14-.38ZM108.18,12.65c1.54-7.39-.34-12.05-5.22-12.05-.57,0-1.14.04-1.7.11l-11.35,31.59c-.89,2.31-.66,3.7,1.45,3.7,7.48.01,14.15-10.32,16.82-23.33h0Z"/>
    </g>
  </g>
</svg>