<svg width="24" height="24" viewBox="0 0 24 24" fill="none" xmlns="http://www.w3.org/2000/svg">
<path d="M5.60714 8.5H16.1429C16.7017 8.5 17.2377 8.7792 17.6328 9.27617C18.028 9.77314 18.25 10.4472 18.25 11.15V15.125C18.25 15.8278 18.028 16.5019 17.6328 16.9988C17.2377 17.4958 16.7017 17.775 16.1429 17.775H9.82143L6.66071 21.75V17.775H5.60714C5.04829 17.775 4.51233 17.4958 4.11717 16.9988C3.722 16.5019 3.5 15.8278 3.5 15.125V11.15C3.5 10.4472 3.722 9.77314 4.11717 9.27617C4.51233 8.7792 5.04829 8.5 5.60714 8.5Z" stroke="black" stroke-width="1.5" stroke-linecap="round" stroke-linejoin="round"/>
<path d="M16.8192 5.64722C17.9958 5.22806 19.2429 6.05596 19.3133 7.30302" stroke="black" stroke-width="1.5" stroke-linecap="round" stroke-linejoin="round"/>
<path d="M16.9592 2.80113C19.1843 1.89655 21.5425 3.39016 21.6757 5.78837" stroke="black" stroke-width="1.5" stroke-linecap="round" stroke-linejoin="round"/>
</svg>
